Patient4_TMGait_0pt5_01_left_29_EMG.mot
version=1
nRows=39
nColumns=33
inDegrees=no
endheader
time	1LAddLong	2LGlutMax	3LGlutMed	4LIliopsoas	5LSemiMemb	6LBicFemLong	7LRecFem	8LVastMed	9LVastLat	10LGasMed	11LTibAnt	12lTibPost	13LPeroneusLong	14LSol	15LExtDigLong	16LFlexDigLong	17RAddLong	18RGlutMax	19RGlutMed	20RIliopsoas	21RSemiMemb	22RBicFemLong	23RRecFem	24RVastMed	25RVastLat	26RGasMed	27RTibAnt	28RTibPost	29RPeroneusLong	30RSol	31RExtDigLong	32RFlexDigLong
40.105	0.015564	0.12512	-0.09552	0.00824	0.025024	-0.030212	-0.048218	0.011292	0.080261	-0.048523	-0.008392	0.004425	0.018158	-0.053711	0.028687	-0.005493	-0.005493	0.04837	-0.006256	-0.1149	-0.045624	0.10086	0.035858	0.11093	0.02243	-0.020294	-0.049133	-0.031891	-0.1474	-0.032349	0.000305	-0.01297
40.106	0.018463	0.16098	-0.074158	0.010681	0.037079	-0.020294	-0.045929	0.005646	0.084229	-0.041199	-0.003204	0.003204	0.003967	-0.014191	0.011444	-0.003204	0.002136	0.029755	-0.030518	-0.069733	-0.041351	0.13275	0.19608	0.12573	0.048523	-0.038757	-0.039215	-0.31815	-0.052185	-0.13062	-0.008087	-0.014343
40.107	0.011444	0.11261	-0.062256	0.002441	0.023346	0.009918	-0.050964	0.00412	0.090637	-0.042572	0.009003	-0.007782	-0.014343	0.005493	-0.009766	0.007324	0.006104	-0.022583	-0.30502	-0.027008	-0.018921	0.14771	0.089264	0.018158	0.020905	-0.034943	0.14893	0.006866	-0.093231	0.000305	-0.005798	-0.0177
40.108	0.007782	0.11673	-0.06546	0.008392	0.021667	0.01709	-0.033722	0.002747	0.090637	-0.037842	0.012817	-0.00412	-0.015106	0.052795	-0.031433	0.00473	0.007477	0.03891	-0.003815	-0.07782	0.015717	0.13855	0.12009	0.052032	0.062408	-0.034027	0.2092	0.17334	0.20096	0.099335	-0.007477	-0.0177
40.109	0.012207	0.12314	-0.056152	0.000305	0.017853	-0.011292	-0.037994	0.007935	0.096436	-0.037231	0.002747	0.005493	-0.028992	0.1004	-0.030823	-0.000458	0.010376	0.051575	0.01709	-0.098724	0.034027	0.075836	0.1506	0.036621	0.069885	-0.031738	0.077972	0.061646	0.031891	0.20172	0.002899	-0.012512
40.11	0.003967	0.080872	-0.084076	-0.008545	0.003204	-0.072327	-0.046082	0.000763	0.09964	-0.037537	-0.006409	0.002136	-0.022125	0.10025	-0.023193	0.001526	0.007477	0.027161	0.1796	-0.067596	-0.007172	-0.036011	0.17502	0.030975	0.09201	0.000916	0.037994	0.103	-3.0591	-0.066833	-0.004578	-0.003815
40.111	0.007782	0.093079	-0.057526	-0.008545	0.010834	-0.042419	-0.041046	0.006104	0.096741	-0.027161	-0.003815	0.002136	-0.011292	0.076447	-0.007019	0.002136	0.001831	0.054779	-0.056305	0.075989	-0.011597	-0.023804	0.23102	0.001984	0.074463	-0.051727	-0.090637	-0.024414	-1.5593	-0.23789	-0.003357	-0.008392
40.112	0.005493	0.070496	-0.075073	-0.010681	-0.010071	-0.056	-0.045013	0.005188	0.10468	-0.031891	0.001526	0.002747	-0.009308	0.067291	-0.007019	0.005341	0.014496	0.052185	-0.47531	0.16968	0.048828	-0.008392	0.18616	-0.026245	0.071106	-0.030365	-0.1709	-0.22812	-0.32089	-0.61172	-0.007935	-0.015106
40.113	0.01297	0.095673	-0.10956	0.005035	-0.0354	-0.065765	-0.041351	0.007477	0.10529	-0.018768	-0.00061	0.005646	0.000916	0.039978	0.005188	0.00473	0.005951	0.083313	-0.31754	0.2034	0.052032	-0.00473	0.078278	0.048981	0.084686	0.14313	-0.1445	-0.43091	-1.0051	-1.1925	-0.009003	-0.016174
40.114	-0.002441	0.075989	-0.15762	0.005341	-0.028839	-0.039825	-0.03891	0.00824	0.11154	-0.030365	-0.009155	0.004883	0.002899	0.029602	0.006256	-0.002594	-0.002136	0.074615	0.7399	-0.033264	0.041046	-0.002594	0.003204	0.021057	0.25421	0.042572	-0.045319	0.33386	-1.1473	-1.0803	0.002441	-0.023499
40.115	-0.02594	0.057831	-0.088348	0.007324	-0.002289	-0.014343	-0.033417	0.003967	0.084686	-0.027924	0.005035	0.010223	-0.010071	0.005493	0.020142	0.007019	0.005951	0.063019	0.6015	-0.15076	0.019989	-0.003662	-0.092621	-0.000763	0.4248	-0.030212	-0.07843	0.19989	0.37018	-0.33951	-0.006104	-0.020905
40.116	0.027618	0.066223	-0.021057	-0.001373	0.008545	0.020447	-0.040741	0.010529	0.081024	-0.027618	0.017242	0.005951	-0.01297	0.012207	0.028076	-0.003815	0.01358	0.037231	-0.38452	-0.11841	-0.006714	0.029297	-0.08316	0.016937	0.36255	-0.033112	-0.11627	-0.041656	1.0863	0.30899	-0.00412	-0.014801
40.117	0.041351	0.036163	0.024567	-0.006561	0.011749	0.00473	-0.028534	0.008392	0.076904	-0.032043	0.018158	-0.00412	-0.020447	0.02655	0.016632	0.006256	0.011139	0.055237	-0.58899	-0.007935	-0.031586	-0.002899	0.006409	-0.031738	0.26443	-0.003662	-0.0177	-0.046539	0.35141	0.15595	-0.009766	-0.008545
40.118	0.008698	0.006866	0.003967	0.010834	0.01297	-0.008545	-0.014954	0.008698	0.061798	-0.018311	0.021667	0.011444	-0.00351	0.03952	0.005798	0.010223	0.014191	0.088654	0.005341	0.059509	-0.062561	-0.033264	-0.034027	-0.15518	0.11749	0	-0.032806	0.1918	1.3325	1.2346	-0.002747	-0.001526
40.119	0.002136	-0.009003	-0.043182	0.01297	0.009918	0.022583	-0.020294	0.014038	0.054779	-0.02243	0.008087	-0.017853	0.010681	0.001068	-0.001221	0.007172	0.011749	0.032196	-0.46768	0.10529	-0.10696	-0.034485	0.047607	-0.24353	-0.022278	0.008087	-0.007019	0.12238	1.0965	1.1897	-0.008698	0.003357
40.12	0.002441	0.018311	-0.023651	0.000916	-0.00412	0.048981	-0.018311	0.00885	0.053864	-0.012817	-0.000153	-0.000916	0.010071	-0.005341	-0.006256	-0.000916	0.02121	0.044403	-0.54611	0.069122	0.00412	-0.089111	0.35934	-0.15686	-0.42175	0.006714	0.048676	0.095367	0.79788	0.8934	-0.006104	0.002747
40.121	0.006561	0.024414	0.009155	0.005493	-0.026398	0.08606	-0.018768	0.012665	0.053406	-0.011444	0.009308	0.006714	0.025787	0.009918	-0.015717	0.001221	0.00885	0.064697	-0.088501	0.047455	-0.039215	-0.11887	0.43579	-0.15289	-0.66299	0.003967	-0.014648	0.005188	0.39856	0.52628	0.003815	-0.002594
40.122	0.010986	-0.015259	-0.009155	-0.002441	-0.042572	0.058899	-0.010376	0.012817	0.056915	-0.013885	0.004272	-0.010071	0.014954	-0.052032	-0.015411	-0.01297	0.006561	0.025635	0.26413	0.046844	-0.009766	-0.086365	0.1915	-0.11765	-0.7756	-0.002441	-0.020752	-0.035095	0.17258	0.17151	-0.003967	-0.013123
40.123	0.015259	-0.012817	-0.033264	-0.007324	-0.055389	0.033264	-0.032501	0.00946	0.041809	-0.030823	0.006256	0.004425	0.016327	-0.090179	0.013275	-0.000305	0.006714	0.026245	0.51392	0.013885	0.075989	-0.079041	0.036316	-0.016785	-0.31036	-0.005188	0.12634	-0.048065	0.38574	0.052795	-0.004578	-0.014343
40.124	0.012512	-0.046234	-0.010223	0.006409	0.0177	0.004578	-0.024872	0.010223	0.042267	-0.03418	0.010071	0.007477	0.02121	-0.084686	0.025635	0.003662	0.021057	-0.12741	0.57068	0.076141	0.051727	-0.057983	-0.13092	0.027466	0.029297	0.00061	0.25299	0.04837	0.14206	-0.04776	-0.005188	-0.021057
40.125	0.00885	-0.072021	0.033112	0.004425	0.05722	0.036316	-0.03479	0.008087	0.033417	-0.014648	-0.016937	0.001068	-0.00473	-0.011749	0.00824	0.009308	0.031128	-0.080109	0.044403	0.091248	0.025177	-0.066376	-0.17624	0.000916	0.11719	0.006409	0.1944	0.015564	0.88287	0.054779	-0.001068	-0.016937
40.126	0.008698	-0.067596	0.044708	0.001831	0.010834	0.057831	-0.005798	0.012054	0.02655	-0.027466	0.00824	0.008698	-0.003662	-0.074615	0.011597	0.0177	0.037537	-0.081329	0.005493	0.063782	-0.029297	-0.070496	-0.081787	-0.067291	0.027161	0.003815	0.14084	-0.022888	0.84747	0.12558	0.004425	-0.014038
40.127	0.007477	-0.073547	0.001373	-0.003052	-0.009308	0.062408	-0.01297	0.00412	0.02655	-0.020142	0.011444	-0.002441	-0.003662	-0.12512	0.003204	0.005188	0.00946	-0.090485	-0.022278	0.036316	-0.18875	0.06073	-0.036469	-0.00351	-0.015411	0.018463	-0.050659	-0.030823	0.76569	0.077057	-0.003357	-0.008392
40.128	0.009308	-0.069275	-0.067902	-0.016022	-0.009308	0.063019	-0.030823	0.006866	0.022583	-0.035706	0.007935	0.006256	-0.009918	-0.096741	0.018768	0.004425	-0.041504	-0.076447	-0.060577	0.017242	-0.18219	0.1445	-0.001373	0.046844	-0.000916	0.028229	-0.17273	-0.03067	0.89432	-0.058289	-0.00061	-0.009308
40.129	0.007324	-0.092926	-0.058136	0.017395	0.02533	0.056305	-0.033417	0.002747	0.033722	-0.042114	-0.003967	0.002441	-0.001373	-0.15091	0.017242	-0.004272	-0.018158	-0.01236	-0.10101	-0.035553	-0.019226	0.074615	0.014801	0.080566	0.007629	0.023193	-0.18234	-0.027924	-0.42099	-0.055389	-0.008698	-0.007935
40.13	0.010376	-0.083771	-0.035706	0.005646	0.041199	0.059357	-0.030212	-0.002136	0.042572	-0.036926	0.003052	0	0.00061	-0.16525	0.003204	0.008698	0.010834	0.008698	-0.025024	-0.036774	0.17944	0.098419	0.011902	0.067596	0.005493	0.00946	-0.18967	-0.035095	-1.3861	0.026093	0.001984	-0.014343
40.131	0.003815	-0.068207	-0.042114	0.007019	-0.016785	0.084076	-0.040436	-0.001678	0.02655	-0.031738	0.013428	0.00351	0.001373	-0.092163	-0.007477	0.007629	-0.01709	0.002747	-0.18799	-0.023651	0.068817	0.003052	-0.017548	0.072327	0.003662	-0.010223	-0.14084	-0.032959	-0.58914	0.08316	0.001221	-0.006714
40.132	0.016327	-0.10117	-0.03891	0.000153	-0.070343	0.042114	-0.042419	0.00351	0.034485	-0.030823	0.015564	-0.002441	-0.001984	0.005341	-0.005035	-0.001984	-0.024109	-0.032654	0.10971	0.001221	-0.033722	-0.031281	-0.000458	0.043945	0.007477	-0.05249	-0.16769	-0.0354	0.028381	-0.001068	0.000916	-0.00885
40.133	0.018311	-0.13199	-0.052948	-0.007477	-0.049286	0.030823	-0.032806	0.007629	0.041962	-0.029907	0.03067	-0.000153	-0.024567	-0.001526	0.003967	0.003204	-0.018158	-0.073242	0.20248	0.035553	-0.06012	0.050354	0.007324	-0.003662	-0.023804	-0.075684	0.045776	-0.0383	-0.25971	-0.003967	-0.003357	-0.010986
40.134	0.014343	-0.093079	-0.019073	0.006714	0.043182	0.025024	-0.014343	-0.000305	0.033722	-0.027924	0.005035	0.002441	-0.020599	-0.057678	0.016937	0.00351	0.006409	-0.029755	0.37262	0.028076	-0.057373	0.093079	0.000305	-0.00473	-0.014191	-0.083618	0.039063	-0.044708	-0.27618	-0.012054	-0.006256	-0.002441
40.135	0.012817	-0.11932	-0.02182	-0.001678	0.046844	0.035706	-0.026093	0	0.027008	-0.023651	0.030975	0.005035	-0.032959	-0.091553	0.058899	0.00412	0.006866	0.071716	0.010223	0.020447	-0.0383	0.25818	0.013885	0.008698	0.045319	-0.029297	-0.000305	-0.06134	-0.049744	-0.028687	0.001678	-0.012817
40.136	0.010529	-0.10117	-0.018158	-0.007629	0.02594	0.033264	-0.012665	0.002441	0.034027	-0.032806	0.013733	-0.001221	-0.024567	-0.10284	0.069885	0.005646	-0.006409	0.11627	-0.57388	0.002747	0.012512	0.34073	-0.022888	0.042114	0.121	0.05661	0.006866	-0.090942	-0.68695	0.014191	0.004272	-0.005646
40.137	0.014954	-0.092316	-0.015106	-0.008392	0.017853	0.037994	-0.03006	0.001678	0.024261	-0.032043	-0.036926	0.002899	-0.007935	-0.067749	0.050659	0.001373	-0.007629	0.14252	-0.39658	0.016479	0.075073	0.25406	-0.021973	0.037994	0.16083	0.030518	0.030212	0.085449	-1.05	0.095978	-0.006561	-0.009766
40.138	0.009155	-0.13351	-0.031738	0.000916	0.021362	0.032043	-0.024872	0.003204	0.033264	-0.032806	-0.016632	0.005035	-0.016937	-0.040588	0.028839	0.007019	-0.008698	0.086823	0.054474	0.00946	0.068665	0.33798	0.015869	0.066681	0.11002	-0.10544	0.010681	0.057068	-0.86029	0.23041	-0.000458	-0.010681
40.139	0.079651	-0.16312	-0.053864	0.011902	-0.015564	0.062103	-0.019379	0.005798	0.033722	-0.019379	-0.029755	0.00412	0.002747	-0.066833	-0.054779	0.00946	-0.010986	-0.020142	-0.5806	0.044556	0.088348	0.3743	-0.009308	0.085602	0.10193	-0.13321	0.023346	-0.052643	-0.8699	-0.006409	-0.001068	-0.014038
40.14	-0.015869	-0.15457	-0.050964	-0.000153	-0.038147	0.045166	-0.023651	0.001526	0.029144	-0.039368	-0.007324	0.001221	0.027771	-0.077057	-0.10529	0.00473	-0.001526	0.014038	-0.5629	0.059662	0.061951	0.22186	0.068817	0.002289	0.075378	-0.10895	0.085754	-0.10101	-0.013885	-0.16159	0.002136	-0.015564
40.141	-0.016937	-0.14648	-0.050659	-0.010986	-0.05722	0.0354	-0.033112	-0.002899	0.033722	-0.031891	0.003357	0.018463	0.010376	-0.040741	-0.041656	0.002136	0.013275	0.002899	-0.35629	0.030365	0.057831	0.14862	0.10971	0.015564	0.057526	-0.084991	0.061035	0.005035	2.2182	-0.17883	0.002289	-0.006409
40.142	0.001984	-0.16235	-0.078583	0.00061	-0.075836	0.087128	-0.002899	-0.002747	0.027771	-0.009003	-0.025787	0.011139	-0.001221	-0.023499	-0.035095	-0.001831	0.028534	-0.070038	0.16281	0.008698	0.057678	0.1358	0.12085	0.035248	0.033875	0.019684	0.011597	-0.01709	0.77316	-0.37064	0	0.00061
40.143	0.016632	-0.13702	-0.16403	-0.011444	0.027771	0.027924	-0.017548	0.005188	0.031281	-0.011292	-0.008392	-0.000153	-0.006409	-0.020447	-0.029449	0.007782	0.021667	-0.14679	-0.12482	0.028534	0.061035	0.09964	0.11627	0.046539	0.059967	0.094757	-0.10117	0.06958	0.24963	-0.42969	-0.003052	-0.017853
